<?xml version="1.0" encoding="utf-8"?>
<!-- Generator: Adobe Illustrator 21.1.0, SVG Export Plug-In . SVG Version: 6.00 Build 0)  -->
<svg version="1.1" id="Layer_1" xmlns="http://www.w3.org/2000/svg" xmlns:xlink="http://www.w3.org/1999/xlink" x="0px" y="0px"
	 viewBox="0 0 1224.6 688.8" style="enable-background:new 0 0 1224.6 688.8;" xml:space="preserve">
<style type="text/css">
	.st0{fill:#4FC3F7;}
	.st1{fill:#FFFFFF;}
	.st2{clip-path:url(#SVGID_2_);}
	.st3{clip-path:url(#SVGID_4_);}
	.st4{enable-background:new    ;}
	.st5{fill:none;}
</style>
<rect x="-25.8" y="-29.3" class="st0" width="1484.6" height="759.9"/>
<circle class="st1" cx="626" cy="134.9" r="79.9"/>
<circle class="st1" cx="202.6" cy="475.7" r="151.9"/>
<g>
	<g>
		<defs>
			<rect id="SVGID_1_" width="1224.6" height="688.8"/>
		</defs>
		<clipPath id="SVGID_2_">
			<use xlink:href="#SVGID_1_"  style="overflow:visible;"/>
		</clipPath>
		<path class="st2" d="M116.7,109.8c4.7,0,7.2,2.6,7.2,6c0,3.7-2.8,6-7.4,6h-4.9v-12.1L116.7,109.8L116.7,109.8z M118.8,100.3H101
			v45.6h10.6v-14.7h3.7l9.4,14.7h12.6l-10.7-16v-0.1c5.3-2.2,8.5-6.7,8.5-13.7C135.1,107,130,100.3,118.8,100.3 M1134.1,466.7
			l-131.6,131.6H90.4V222.1L222.1,90.4h912.1L1134.1,466.7L1134.1,466.7z M207.1,90.4L90.4,207.1V90.4h40.9H207.1z M1017.5,598.4
			l116.7-116.7v116.7H1017.5z M1144.7,609v-10.6V463.6V90.4V79.8h-10.6h-909h-93.8H90.4H79.8v145.3v373.2V609h10.6h909h134.7H1144.7
			z"/>
	</g>
</g>
<g>
	<g>
		<defs>
			<polyline id="SVGID_3_" points="1224.6,688.8 1224.6,0 0,0 0,688.8 			"/>
		</defs>
		<clipPath id="SVGID_4_">
			<use xlink:href="#SVGID_3_"  style="overflow:visible;"/>
		</clipPath>
		<g class="st3">
			<g class="st4">
			</g>
		</g>
	</g>
</g>
<rect x="249" y="269.5" class="st5" width="726.6" height="149.9"/>
<g class="st4">
	<path class="st1" d="M303.5,313.2c4.5,0,7-2.8,7-10.1v-30.5h12.1v31.5c0,13.3-6.2,20.4-18.3,20.4c-5.8,0-12.2-1.8-16.7-5l4.7-11.8
		C296.2,311.6,299.8,313.2,303.5,313.2z"/>
	<path class="st1" d="M328.6,306.2c0-10.7,7.7-18.4,19.2-18.4c11.3,0,19.2,7.5,19.2,18.4c0,10.8-7.8,18.3-19.2,18.3
		C336.3,324.5,328.6,316.9,328.6,306.2z M355.6,306.2c0-4.8-3.2-8.3-7.8-8.3c-4.7,0-7.8,3.5-7.8,8.3c0,4.5,3.2,8.3,7.8,8.3
		C352.2,314.5,355.6,310.9,355.6,306.2z"/>
	<path class="st1" d="M407.5,302.6v21.2h-11.3v-18.5c0-5.6-1.9-7.3-5.8-7.3s-6.6,2.6-6.6,8.1v17.8h-11.3v-53h11.3v21.9
		c2.8-3.2,6.7-4.8,10.9-4.8C402.1,287.9,407.5,291.5,407.5,302.6z"/>
	<path class="st1" d="M444.8,302.3v21.5h-10.4l-0.4-2.9H434c-2.2,1.8-5.4,3.5-9.9,3.5c-7.8,0-11.6-4.7-11.6-11
		c0-7.2,5.2-11.5,14.5-11.5h6.8c-0.1-2.9-1.4-5-6.2-5c-2.8,0-6.6,0.8-10.5,1.8l-1.4-9.1c3.7-1,8.4-1.8,14.2-1.8
		C438.7,287.9,444.8,290.8,444.8,302.3z M433.8,312.5v-3.7l-5.5,0.1c-3.1,0.1-5,1.2-5,3.8c0,2.2,1.4,3.6,3.7,3.6
		C432.1,316.2,433.8,313.4,433.8,312.5z"/>
	<path class="st1" d="M486.2,302.7v21.1h-11.3v-18.4c0-5.8-1.8-7.5-5.6-7.5s-6.4,2.7-6.4,8.1v17.7h-11.3v-35.2h11.3v4.2
		c2.8-3.2,6.6-5,10.7-5C480.9,287.9,486.2,291.5,486.2,302.7z"/>
	<path class="st1" d="M579.6,272.7l-16,51.1h-11l-8.6-33.6H544l-8.9,33.6h-11l-16-51.1h12.8l8.6,31.4h0.1l7.9-31.4h12.7l7.8,31.4
		h0.1l8.6-31.4H579.6z"/>
	<path class="st1" d="M582,277.4c0-4,3.2-6.8,7.3-6.8c4,0,7.3,2.7,7.3,6.8s-3.2,6.8-7.3,6.8C585.2,284.1,582,281.4,582,277.4z
		 M583.6,288.6h11.2v35.2h-11.2V288.6z"/>
	<path class="st1" d="M614.2,270.8v38.8c0,3.7,1.6,4.5,4.2,4.5c1,0,2-0.1,4.1-0.6l1.3,10.1c-1.4,0.4-4.6,0.9-7.8,0.9
		c-8.5,0-12.9-3.7-12.9-13.9v-39.9H614.2z"/>
	<path class="st1" d="M662.6,302.6v21.2h-11.3v-18.5c0-5.6-1.9-7.3-5.8-7.3c-4,0-6.6,2.6-6.6,8.1v17.8h-11.3v-53h11.3v21.9
		c2.8-3.2,6.7-4.8,10.9-4.8C657.2,287.9,662.6,291.5,662.6,302.6z"/>
	<path class="st1" d="M702.6,309.2h-23.3c1,4,4.5,6.1,11,6.1c2.7,0,5.9-0.4,9.9-2.2l1.2,9.2c-3.4,1.4-8.9,2.1-12.3,2.1
		c-14.2,0-21.1-7.8-21.1-18.9c0-10.2,7.6-17.7,18-17.7c11,0,16.9,7.6,16.9,17.7C702.9,307,702.7,308.5,702.6,309.2z M679.2,302.6
		l12.8-0.1c-0.6-3.7-3-5.6-6.1-5.6C682.6,296.9,679.9,298.9,679.2,302.6z"/>
	<path class="st1" d="M719.8,270.8v38.8c0,3.7,1.6,4.5,4.2,4.5c1,0,2-0.1,4.1-0.6l1.3,10.1c-1.4,0.4-4.6,0.9-7.8,0.9
		c-8.5,0-12.9-3.7-12.9-13.9v-39.9H719.8z"/>
	<path class="st1" d="M789.1,303.3v20.5h-11.2v-17.9c0-4.6-1.3-7.9-5.1-7.9c-3.3,0-5.9,2.7-5.9,8.2v17.6h-11.2v-17.9
		c0-4.6-1.3-7.9-5.1-7.9c-3.5,0-6,2.7-6,8.2v17.6h-11.3v-35.2h11.3v4h0.1c2.7-3.1,6.3-4.7,9.9-4.7c4.3,0,7.9,1.5,10.1,5.1h0.1
		c2.9-3.4,7.1-5.1,11.9-5.1C784,287.9,789.1,292.2,789.1,303.3z"/>
	<path class="st1" d="M807.4,296.4c-0.6,0-2.4,0.2-2.4,1.8c0,1.3,1.3,2.2,5.3,3.4c8.3,2.4,12,4.5,12,11.5c0,7.2-5,11.4-14,11.4
		c-5.9,0-10.1-0.9-14.6-2.6l3-9.6c3,2.1,7.2,3.7,10.4,3.7c2.5,0,3.7-0.8,3.7-2.2c0-1-1.1-1.9-6-3.4c-5.8-1.7-10.9-4.2-10.9-11.1
		c0-7.4,6-11.5,14.3-11.5c4.2,0,7.1,0.6,12.9,2.2l-3.1,9.6C813.5,297.4,810.4,296.4,807.4,296.4z"/>
	<path class="st1" d="M838.5,296.4c-0.6,0-2.4,0.2-2.4,1.8c0,1.3,1.3,2.2,5.3,3.4c8.3,2.4,12,4.5,12,11.5c0,7.2-5,11.4-14,11.4
		c-5.9,0-10.1-0.9-14.6-2.6l3-9.6c3,2.1,7.2,3.7,10.4,3.7c2.5,0,3.7-0.8,3.7-2.2c0-1-1.1-1.9-6-3.4c-5.8-1.7-10.9-4.2-10.9-11.1
		c0-7.4,6-11.5,14.3-11.5c4.2,0,7.1,0.6,12.9,2.2l-3.1,9.6C844.5,297.4,841.4,296.4,838.5,296.4z"/>
	<path class="st1" d="M856.2,306.2c0-10.7,7.7-18.4,19.2-18.4c11.3,0,19.2,7.5,19.2,18.4c0,10.8-7.8,18.3-19.2,18.3
		C863.9,324.5,856.2,316.9,856.2,306.2z M883.2,306.2c0-4.8-3.2-8.3-7.8-8.3c-4.7,0-7.8,3.5-7.8,8.3c0,4.5,3.2,8.3,7.8,8.3
		C879.9,314.5,883.2,310.9,883.2,306.2z"/>
	<path class="st1" d="M934.8,302.7v21.1h-11.3v-18.4c0-5.8-1.8-7.5-5.6-7.5s-6.4,2.7-6.4,8.1v17.7h-11.3v-35.2h11.3v4.2
		c2.8-3.2,6.6-5,10.7-5C929.5,287.9,934.8,291.5,934.8,302.7z"/>
</g>
<g class="st4">
	<path d="M420.6,409.5c-15,0-27.1-9.1-27.1-26.1c0-14.6,9.4-26.4,26.3-26.4c5.2,0,11.4,0.8,17.3,3.7l-3,12.2
		c-4.2-3.2-9.3-4.5-13.9-4.5c-7.8,0-14,5.5-14,14.8c0,8.2,5.5,14.7,15.6,14.7c5.7,0,9.5-1.8,13.8-4.5l2.6,12
		C433.1,408.2,426.2,409.5,420.6,409.5z"/>
	<path d="M455.7,355.9v38.8c0,3.7,1.6,4.5,4.2,4.5c1,0,2-0.1,4.1-0.6l1.3,10.1c-1.4,0.4-4.6,0.9-7.8,0.9c-8.5,0-12.9-3.7-12.9-13.9
		v-39.9H455.7z"/>
	<path d="M499.4,387.4v21.5H489l-0.4-2.9h-0.1c-2.2,1.8-5.4,3.5-9.9,3.5c-7.8,0-11.6-4.7-11.6-11c0-7.2,5.2-11.5,14.5-11.5h6.8
		c-0.1-2.9-1.4-5-6.2-5c-2.8,0-6.6,0.8-10.5,1.8l-1.4-9.1c3.7-1,8.4-1.8,14.2-1.8C493.2,372.9,499.4,375.9,499.4,387.4z
		 M488.3,397.6v-3.7l-5.5,0.1c-3.1,0.1-5,1.2-5,3.8c0,2.2,1.4,3.6,3.7,3.6C486.6,401.3,488.3,398.5,488.3,397.6z"/>
	<path d="M517.4,381.5c-0.6,0-2.4,0.2-2.4,1.8c0,1.3,1.3,2.2,5.3,3.4c8.3,2.4,12,4.5,12,11.5c0,7.2-5,11.4-14,11.4
		c-5.9,0-10.1-0.9-14.6-2.6l3-9.6c3,2.1,7.2,3.7,10.4,3.7c2.5,0,3.7-0.8,3.7-2.2c0-1-1.1-1.9-6-3.4c-5.8-1.7-10.9-4.2-10.9-11.1
		c0-7.4,6-11.5,14.3-11.5c4.2,0,7.1,0.6,12.9,2.2l-3.1,9.6C523.5,382.4,520.4,381.5,517.4,381.5z"/>
	<path d="M548.5,381.5c-0.6,0-2.4,0.2-2.4,1.8c0,1.3,1.3,2.2,5.3,3.4c8.3,2.4,12,4.5,12,11.5c0,7.2-5,11.4-14,11.4
		c-5.9,0-10.1-0.9-14.6-2.6l3-9.6c3,2.1,7.2,3.7,10.4,3.7c2.5,0,3.7-0.8,3.7-2.2c0-1-1.1-1.9-6-3.4c-5.8-1.7-10.9-4.2-10.9-11.1
		c0-7.4,6-11.5,14.3-11.5c4.2,0,7.1,0.6,12.9,2.2l-3.1,9.6C554.5,382.4,551.4,381.5,548.5,381.5z"/>
	<path d="M584,391.3c0-10.7,7.7-18.4,19.2-18.4c11.3,0,19.2,7.5,19.2,18.4c0,10.8-7.8,18.3-19.2,18.3C591.7,409.6,584,402,584,391.3
		z M611,391.3c0-4.8-3.2-8.3-7.8-8.3c-4.7,0-7.8,3.5-7.8,8.3c0,4.5,3.2,8.3,7.8,8.3C607.7,399.6,611,396,611,391.3z"/>
	<path d="M629,382.8h-3.5v-9.1h3.5v-5.5c0-8.8,4.5-13,12.2-13c4,0,7.1,0.6,8.5,0.9l-1.3,10.1c-2-0.3-3.1-0.6-4.8-0.6
		c-1.9,0-3.4,0.9-3.4,4.5v3.5h6.7v9.1h-6.7v26.1H629V382.8z"/>
	<path d="M703,398.4v10.5h-33.6l-0.1-7.6l14.4-15c4.8-5,7.1-7.7,7.1-10.8c0-3.5-2.1-6-6.3-6c-4,0-8,1.3-13,4.1l-1.9-10.8
		c5-2.4,9.4-4,16.2-4c9.9,0,16.8,5.5,16.8,15.9c0,5.7-2.4,10.8-8.4,16.5l-7.5,7.2H703z"/>
	<path d="M707.7,384.1c0-15.3,7.3-25.3,20.1-25.3c12.2,0,19.9,9.5,19.9,25.3c0,15.5-7.3,25.5-19.9,25.5
		C715.4,409.6,707.7,400,707.7,384.1z M735.7,384.1c0-8.7-2.6-14.5-7.9-14.5c-4.9,0-8,4.8-8,14.5c0,8.7,2.6,14.6,8,14.6
		C732.7,398.7,735.7,394,735.7,384.1z"/>
	<path d="M784.6,398.4v10.5h-31.3v-10.5h10.4v-24.9l-7.6,5.6l-5.5-8.7l15.5-10.9h9.4v39H784.6z"/>
	<path d="M820,359.4v7.5L803.1,410l-11.6-2l15.8-38.1h-20.1v-10.5H820z"/>
</g>
<circle class="st1" cx="971.1" cy="182.9" r="48"/>
</svg>
