<?xml version="1.0" encoding="utf-8"?>
<!-- Generator: Adobe Illustrator 21.1.0, SVG Export Plug-In . SVG Version: 6.00 Build 0)  -->
<svg version="1.1" id="Layer_1" xmlns="http://www.w3.org/2000/svg" xmlns:xlink="http://www.w3.org/1999/xlink" x="0px" y="0px"
	 viewBox="0 0 1224.6 688.8" style="enable-background:new 0 0 1224.6 688.8;" xml:space="preserve">
<style type="text/css">
	.st0{fill:#4FC3F7;}
	.st1{fill:#FFFFFF;}
	.st2{clip-path:url(#SVGID_2_);}
	.st3{clip-path:url(#SVGID_4_);}
	.st4{enable-background:new    ;}
	.st5{fill:none;}
</style>
<rect x="-25.8" y="-29.3" class="st0" width="1484.6" height="759.9"/>
<circle class="st1" cx="172.6" cy="512.6" r="48"/>
<circle class="st1" cx="324.2" cy="175.5" r="79.9"/>
<circle class="st1" cx="1018.1" cy="496.3" r="151.9"/>
<g>
	<g>
		<defs>
			<rect id="SVGID_1_" width="1224.6" height="688.8"/>
		</defs>
		<clipPath id="SVGID_2_">
			<use xlink:href="#SVGID_1_"  style="overflow:visible;"/>
		</clipPath>
		<path class="st2" d="M116.7,109.8c4.7,0,7.2,2.6,7.2,6c0,3.7-2.8,6-7.4,6h-4.9v-12.1L116.7,109.8L116.7,109.8z M118.8,100.3H101
			v45.6h10.6v-14.7h3.7l9.4,14.7h12.6l-10.7-16v-0.1c5.3-2.2,8.5-6.7,8.5-13.7C135.1,107,130,100.3,118.8,100.3 M1134.1,466.7
			l-131.6,131.6H90.4V222.1L222.1,90.4h912.1L1134.1,466.7L1134.1,466.7z M207.1,90.4L90.4,207.1V90.4h40.9H207.1z M1017.5,598.4
			l116.7-116.7v116.7H1017.5z M1144.7,609v-10.6V463.6V90.4V79.8h-10.6h-909h-93.8H90.4H79.8v145.3v373.2V609h10.6h909h134.7H1144.7
			z"/>
	</g>
</g>
<g>
	<g>
		<defs>
			<polyline id="SVGID_3_" points="1224.6,688.8 1224.6,0 0,0 0,688.8 			"/>
		</defs>
		<clipPath id="SVGID_4_">
			<use xlink:href="#SVGID_3_"  style="overflow:visible;"/>
		</clipPath>
		<g class="st3">
			<g class="st4">
			</g>
		</g>
	</g>
</g>
<rect x="249" y="269.5" class="st5" width="726.6" height="149.9"/>
<g class="st4">
	<path class="st1" d="M417.1,303.2l-3.7,4.5v14.8h-12v-51.1h12v19.6h0.1l14.8-19.6h15.2l-18.4,22.1l19.1,29h-14.8L417.1,303.2
		L417.1,303.2z"/>
	<path class="st1" d="M447.5,276c0-4,3.2-6.8,7.3-6.8c4,0,7.3,2.7,7.3,6.8s-3.2,6.8-7.3,6.8C450.7,282.8,447.5,280.1,447.5,276z
		 M449.1,287.3h11.2v35.2h-11.2V287.3z"/>
	<path class="st1" d="M501.1,307.9h-23.3c1,4,4.5,6.1,11,6.1c2.7,0,5.9-0.4,9.9-2.2l1.2,9.2c-3.4,1.4-8.9,2.1-12.3,2.1
		c-14.2,0-21.1-7.8-21.1-18.9c0-10.2,7.6-17.7,18-17.7c11,0,16.9,7.6,16.9,17.7C501.4,305.7,501.2,307.1,501.1,307.9z M477.7,301.2
		l12.8-0.1c-0.6-3.7-3-5.6-6.1-5.6C481.1,295.5,478.4,297.6,477.7,301.2z"/>
	<path class="st1" d="M530,286.6v12.1c-1.4-0.4-2.7-0.6-3.9-0.6c-4.5,0-8.1,3-8.1,9.2v15.1h-11.3v-35.2H518v5h0.1
		c2.7-3.7,6.2-5.8,9.9-5.8C529.8,286.5,529.9,286.5,530,286.6z"/>
	<path class="st1" d="M563.7,301v21.5h-10.4l-0.4-2.9h-0.1c-2.2,1.8-5.4,3.5-9.9,3.5c-7.8,0-11.6-4.7-11.6-11
		c0-7.2,5.2-11.5,14.5-11.5h6.8c-0.1-2.9-1.4-5-6.2-5c-2.8,0-6.6,0.8-10.5,1.8l-1.4-9.1c3.7-1,8.4-1.8,14.2-1.8
		C557.5,286.5,563.7,289.5,563.7,301z M552.7,311.2v-3.7l-5.5,0.1c-3.1,0.1-5,1.2-5,3.8c0,2.2,1.4,3.6,3.7,3.6
		C550.9,314.9,552.7,312.1,552.7,311.2z"/>
	<path class="st1" d="M605.1,301.4v21.1h-11.3v-18.4c0-5.8-1.8-7.5-5.6-7.5s-6.4,2.7-6.4,8.1v17.7h-11.3v-35.2h11.3v4.2
		c2.8-3.2,6.6-5,10.7-5C599.7,286.5,605.1,290.2,605.1,301.4z"/>
	<path class="st1" d="M669.2,308.2c0,8.2-5.4,14.3-16.3,14.3h-22.5v-51.1h19.3c11.4,0,16.8,4.6,16.8,12.5c0,4.4-1.9,9-7.4,11.3v0.1
		C666,297.1,669.2,301.9,669.2,308.2z M642.2,291.7h5.7c3.6,0,6.5-1.7,6.5-4.9c0-2.9-2.1-4.9-6.9-4.9h-5.3V291.7z M656.7,306.6
		c0-3.2-2.4-5.4-7.6-5.4h-6.9V312h6.9C653.6,312,656.7,310.2,656.7,306.6z"/>
	<path class="st1" d="M705.2,301v21.5h-10.4l-0.4-2.9h-0.1c-2.2,1.8-5.4,3.5-9.9,3.5c-7.8,0-11.6-4.7-11.6-11
		c0-7.2,5.2-11.5,14.5-11.5h6.8c-0.1-2.9-1.4-5-6.2-5c-2.8,0-6.6,0.8-10.5,1.8l-1.4-9.1c3.7-1,8.4-1.8,14.2-1.8
		C699.1,286.5,705.2,289.5,705.2,301z M694.2,311.2v-3.7l-5.5,0.1c-3.1,0.1-5,1.2-5,3.8c0,2.2,1.4,3.6,3.7,3.6
		C692.5,314.9,694.2,312.1,694.2,311.2z"/>
	<path class="st1" d="M710.8,276c0-4,3.2-6.8,7.3-6.8c4,0,7.3,2.7,7.3,6.8s-3.2,6.8-7.3,6.8C714,282.8,710.8,280.1,710.8,276z
		 M712.4,287.3h11.2v35.2h-11.2V287.3z"/>
	<path class="st1" d="M743,269.5v38.8c0,3.7,1.6,4.5,4.2,4.5c1,0,2-0.1,4.1-0.6l1.3,10.1c-1.4,0.4-4.6,0.9-7.8,0.9
		c-8.5,0-12.9-3.7-12.9-13.9v-39.9H743z"/>
	<path class="st1" d="M789.4,307.9h-23.3c1,4,4.5,6.1,11,6.1c2.7,0,5.9-0.4,9.9-2.2l1.2,9.2c-3.4,1.4-8.9,2.1-12.3,2.1
		c-14.2,0-21.1-7.8-21.1-18.9c0-10.2,7.6-17.7,18-17.7c11,0,16.9,7.6,16.9,17.7C789.7,305.7,789.5,307.1,789.4,307.9z M766,301.2
		l12.8-0.1c-0.6-3.7-3-5.6-6.1-5.6C769.4,295.5,766.7,297.6,766,301.2z"/>
	<path class="st1" d="M827.3,287.3L807.9,339h-11.2l7-18.9L790,287.3h11.7l7.1,19.1h0.2l6.8-19.1H827.3z"/>
</g>
<g class="st4">
	<path d="M420.6,409.5c-15,0-27.1-9.1-27.1-26.1c0-14.6,9.4-26.4,26.3-26.4c5.2,0,11.4,0.8,17.3,3.7l-3,12.2
		c-4.2-3.2-9.3-4.5-13.9-4.5c-7.8,0-14,5.5-14,14.8c0,8.2,5.5,14.7,15.6,14.7c5.7,0,9.5-1.8,13.8-4.5l2.6,12
		C433.1,408.2,426.2,409.5,420.6,409.5z"/>
	<path d="M455.7,355.9v38.8c0,3.7,1.6,4.5,4.2,4.5c1,0,2-0.1,4.1-0.6l1.3,10.1c-1.4,0.4-4.6,0.9-7.8,0.9c-8.5,0-12.9-3.7-12.9-13.9
		v-39.9H455.7z"/>
	<path d="M499.4,387.4v21.5H489l-0.4-2.9h-0.1c-2.2,1.8-5.4,3.5-9.9,3.5c-7.8,0-11.6-4.7-11.6-11c0-7.2,5.2-11.5,14.5-11.5h6.8
		c-0.1-2.9-1.4-5-6.2-5c-2.8,0-6.6,0.8-10.5,1.8l-1.4-9.1c3.7-1,8.4-1.8,14.2-1.8C493.2,372.9,499.4,375.9,499.4,387.4z
		 M488.3,397.6v-3.7l-5.5,0.1c-3.1,0.1-5,1.2-5,3.8c0,2.2,1.4,3.6,3.7,3.6C486.6,401.3,488.3,398.5,488.3,397.6z"/>
	<path d="M517.4,381.5c-0.6,0-2.4,0.2-2.4,1.8c0,1.3,1.3,2.2,5.3,3.4c8.3,2.4,12,4.5,12,11.5c0,7.2-5,11.4-14,11.4
		c-5.9,0-10.1-0.9-14.6-2.6l3-9.6c3,2.1,7.2,3.7,10.4,3.7c2.5,0,3.7-0.8,3.7-2.2c0-1-1.1-1.9-6-3.4c-5.8-1.7-10.9-4.2-10.9-11.1
		c0-7.4,6-11.5,14.3-11.5c4.2,0,7.1,0.6,12.9,2.2l-3.1,9.6C523.5,382.4,520.4,381.5,517.4,381.5z"/>
	<path d="M548.5,381.5c-0.6,0-2.4,0.2-2.4,1.8c0,1.3,1.3,2.2,5.3,3.4c8.3,2.4,12,4.5,12,11.5c0,7.2-5,11.4-14,11.4
		c-5.9,0-10.1-0.9-14.6-2.6l3-9.6c3,2.1,7.2,3.7,10.4,3.7c2.5,0,3.7-0.8,3.7-2.2c0-1-1.1-1.9-6-3.4c-5.8-1.7-10.9-4.2-10.9-11.1
		c0-7.4,6-11.5,14.3-11.5c4.2,0,7.1,0.6,12.9,2.2l-3.1,9.6C554.5,382.4,551.4,381.5,548.5,381.5z"/>
	<path d="M584,391.3c0-10.7,7.7-18.4,19.2-18.4c11.3,0,19.2,7.5,19.2,18.4c0,10.8-7.8,18.3-19.2,18.3C591.7,409.6,584,402,584,391.3
		z M611,391.3c0-4.8-3.2-8.3-7.8-8.3c-4.7,0-7.8,3.5-7.8,8.3c0,4.5,3.2,8.3,7.8,8.3C607.7,399.6,611,396,611,391.3z"/>
	<path d="M629,382.8h-3.5v-9.1h3.5v-5.5c0-8.8,4.5-13,12.2-13c4,0,7.1,0.6,8.5,0.9l-1.3,10.1c-2-0.3-3.1-0.6-4.8-0.6
		c-1.9,0-3.4,0.9-3.4,4.5v3.5h6.7v9.1h-6.7v26.1H629V382.8z"/>
	<path d="M703,398.4v10.5h-33.6l-0.1-7.6l14.4-15c4.8-5,7.1-7.7,7.1-10.8c0-3.5-2.1-6-6.3-6c-4,0-8,1.3-13,4.1l-1.9-10.8
		c5-2.4,9.4-4,16.2-4c9.9,0,16.8,5.5,16.8,15.9c0,5.7-2.4,10.8-8.4,16.5l-7.5,7.2H703z"/>
	<path d="M707.7,384.1c0-15.3,7.3-25.3,20.1-25.3c12.2,0,19.9,9.5,19.9,25.3c0,15.5-7.3,25.5-19.9,25.5
		C715.4,409.6,707.7,400,707.7,384.1z M735.7,384.1c0-8.7-2.6-14.5-7.9-14.5c-4.9,0-8,4.8-8,14.5c0,8.7,2.6,14.6,8,14.6
		C732.7,398.7,735.7,394,735.7,384.1z"/>
	<path d="M784.6,398.4v10.5h-31.3v-10.5h10.4v-24.9l-7.6,5.6l-5.5-8.7l15.5-10.9h9.4v39H784.6z"/>
	<path d="M820,359.4v7.5L803.1,410l-11.6-2l15.8-38.1h-20.1v-10.5H820z"/>
</g>
</svg>
