<?xml version="1.0" encoding="utf-8"?>
<!-- Generator: Adobe Illustrator 21.1.0, SVG Export Plug-In . SVG Version: 6.00 Build 0)  -->
<svg version="1.1" id="Layer_1" xmlns="http://www.w3.org/2000/svg" xmlns:xlink="http://www.w3.org/1999/xlink" x="0px" y="0px"
	 viewBox="0 0 1224.6 688.8" style="enable-background:new 0 0 1224.6 688.8;" xml:space="preserve">
<style type="text/css">
	.st0{fill:#4FC3F7;}
	.st1{fill:#FFFFFF;}
	.st2{clip-path:url(#SVGID_2_);}
	.st3{clip-path:url(#SVGID_4_);}
	.st4{enable-background:new    ;}
	.st5{fill:none;}
</style>
<rect x="-25.8" y="-29.3" class="st0" width="1484.6" height="759.9"/>
<circle class="st1" cx="249" cy="133.2" r="79.9"/>
<circle class="st1" cx="975.6" cy="475.7" r="151.9"/>
<g>
	<g>
		<defs>
			<rect id="SVGID_1_" width="1224.6" height="688.8"/>
		</defs>
		<clipPath id="SVGID_2_">
			<use xlink:href="#SVGID_1_"  style="overflow:visible;"/>
		</clipPath>
		<path class="st2" d="M116.7,109.8c4.7,0,7.2,2.6,7.2,6c0,3.7-2.8,6-7.4,6h-4.9v-12.1L116.7,109.8L116.7,109.8z M118.8,100.3H101
			v45.6h10.6v-14.7h3.7l9.4,14.7h12.6l-10.7-16v-0.1c5.3-2.2,8.5-6.7,8.5-13.7C135.1,107,130,100.3,118.8,100.3 M1134.1,466.7
			l-131.6,131.6H90.4V222.1L222.1,90.4h912.1L1134.1,466.7L1134.1,466.7z M207.1,90.4L90.4,207.1V90.4h40.9H207.1z M1017.5,598.4
			l116.7-116.7v116.7H1017.5z M1144.7,609v-10.6V463.6V90.4V79.8h-10.6h-909h-93.8H90.4H79.8v145.3v373.2V609h10.6h909h134.7H1144.7
			z"/>
	</g>
</g>
<g>
	<g>
		<defs>
			<polyline id="SVGID_3_" points="1224.6,688.8 1224.6,0 0,0 0,688.8 			"/>
		</defs>
		<clipPath id="SVGID_4_">
			<use xlink:href="#SVGID_3_"  style="overflow:visible;"/>
		</clipPath>
		<g class="st3">
			<g class="st4">
			</g>
		</g>
	</g>
</g>
<rect x="249" y="269.5" class="st5" width="726.6" height="149.9"/>
<g class="st4">
	<path class="st1" d="M435.5,312.2h-19.7l-3.5,10.2h-10.6l18.9-51.1h9.7l19.1,51.1h-10.6L435.5,312.2z M432.5,303.6l-6.8-20.1h-0.1
		l-6.8,20.1H432.5z"/>
	<path class="st1" d="M454.6,276.7c0-3.2,2.7-5.9,6-5.9c3.3,0,6,2.7,6,5.9s-2.7,5.9-6,5.9C457.4,282.6,454.6,279.9,454.6,276.7z
		 M455.8,287.3h9.4v35.1h-9.4V287.3z"/>
	<path class="st1" d="M501.4,317.6h-0.3c-2.6,3.5-6.5,5.5-11.4,5.5c-9.1,0-16.3-6.6-16.3-17.6c0-10.8,8.1-18.6,18-18.6
		c2.7,0,6,0.5,9.1,2.7v-19.9h9.4v40.7c0,4.4,1.2,6.7,2.7,8.6l-7.3,5.1C503.2,321.6,502,319.5,501.4,317.6z M500.6,305.4V305
		l-0.1-5.3v-1.6c-2.8-2.3-5-3-7.7-3c-6,0-9.8,4.8-9.8,10.2c0,5.8,3.9,9.2,8.6,9.2C496.7,314.6,500.4,311,500.6,305.4z"/>
	<path class="st1" d="M548,301.6v20.9h-8.7l-0.4-3.1h-0.1c-2.4,1.9-5.8,3.7-9.8,3.7c-7.9,0-11.7-4.7-11.7-11.1
		c0-7.1,4.5-11.4,14.1-11.4h7.3c-0.3-4-2.4-6-6.6-6c-3,0-6,0.5-10.9,2.2l-1.5-8.1c3.2-1,8.2-1.8,12.1-1.8
		C542.5,286.8,548,290.9,548,301.6z M538.7,311v-3.8l-6.3,0.1c-3.7,0-5.8,1.3-5.8,4.2c0,2.3,1.7,4,4.8,4
		C536.1,315.3,538.7,312.5,538.7,311z"/>
	<path class="st1" d="M590.3,301.6v20.9h-9.4V304c0-6.7-2.4-8.8-6.8-8.8c-4.8,0-8,3.3-8,9.6v17.7h-9.4v-35.1h9.4v4.5h0.1
		c2.9-3.4,6.9-5.1,11.2-5.1C585,286.8,590.3,290.8,590.3,301.6z"/>
	<path class="st1" d="M670.9,271.3v51.1h-10v-31.8h-0.1l-12.5,22h-6.6l-12.5-22h-0.1v31.8h-10.1v-51.1h10.2l15.7,29.1h0.1l15.6-29.1
		H670.9z"/>
	<path class="st1" d="M698.1,323c-11.9,0-18.7-7.3-18.7-18.1c0-10.7,7.5-18.1,19.1-18.1c3.2,0,7.3,0.8,11.2,2.5l-1.4,9.3
		c-3.7-2.3-6.6-3.4-9.4-3.4c-6.1,0-9.9,3.9-9.9,9.6c0,5.7,3.6,9.8,10.7,9.8c3.1,0,5.9-1,8.9-3.2l2.2,8.7
		C707.3,322,702.8,323,698.1,323z"/>
	<path class="st1" d="M750.1,287.3l-13.8,35.1h-8.9l-13.8-35.1h9.9l8.3,23.6h0.1l8.1-23.6H750.1z"/>
	<path class="st1" d="M783.1,301.6v20.9h-8.7l-0.4-3.1h-0.1c-2.4,1.9-5.8,3.7-9.8,3.7c-7.9,0-11.7-4.7-11.7-11.1
		c0-7.1,4.5-11.4,14.1-11.4h7.3c-0.3-4-2.4-6-6.6-6c-3,0-6,0.5-10.9,2.2l-1.5-8.1c3.2-1,8.2-1.8,12.1-1.8
		C777.5,286.8,783.1,290.9,783.1,301.6z M773.8,311v-3.8l-6.3,0.1c-3.7,0-5.8,1.3-5.8,4.2c0,2.3,1.7,4,4.8,4
		C771.1,315.3,773.8,312.5,773.8,311z"/>
	<path class="st1" d="M823,287.3L803.2,339h-9.6l7.1-18.7l-14-33h9.8l8.6,21.7h0.1l8.1-21.7H823z"/>
</g>
<g class="st4">
	<path d="M421.8,409.4c-15.4,0-27.4-9.1-27.4-25.9c0-14.6,9.4-26.4,26.4-26.4c5,0,11,1.2,16.3,4l-2.3,9.9c-3.3-2.2-7.7-4.2-13.1-4.2
		c-10,0-16.6,6.5-16.6,16.7c0,9.5,7.1,16.3,17.4,16.3c6,0,10.1-2.2,13.6-5.3l2.1,10.7C433.6,408.2,428.2,409.4,421.8,409.4z"/>
	<path d="M465.7,408.7c-2.4,0.6-4.4,0.8-7.5,0.8c-7.8,0-12-3.9-12-13.5v-40.2h9.4v39.3c0,3.8,1.4,5.5,4.2,5.5c1.2,0,2.6-0.3,4.3-0.8
		L465.7,408.7z"/>
	<path d="M499.9,388v20.9h-8.7l-0.4-3.1h-0.1c-2.4,1.9-5.8,3.7-9.8,3.7c-7.9,0-11.7-4.7-11.7-11.1c0-7.1,4.5-11.4,14.1-11.4h7.3
		c-0.3-4-2.4-6-6.6-6c-3,0-6,0.5-10.9,2.2l-1.5-8.1c3.2-1,8.2-1.8,12.1-1.8C494.4,373.2,499.9,377.3,499.9,388z M490.6,397.4v-3.8
		l-6.3,0.1c-3.7,0-5.8,1.3-5.8,4.2c0,2.3,1.7,4,4.8,4C488,401.7,490.6,398.9,490.6,397.4z"/>
	<path d="M519.7,380.6c-1.5,0-3.5,0.6-3.5,2.7c0,1.5,1.9,2.6,5.3,3.8c7.8,2.8,12.2,4.5,12.2,11.4c0,6.3-4.4,10.9-13.8,10.9
		c-5,0-9.6-1.1-13.5-2.8l2.9-8.1c3.2,2.2,8.1,3.4,10.7,3.4c2.9,0,4.4-1,4.4-2.8c0-1.7-2.4-2.6-6.6-4c-5.8-1.9-10.8-4.7-10.8-11.4
		c0-6.3,5.1-10.5,12.3-10.5c4.5,0,8.4,0.6,13.1,2.2l-2.8,8.4C526.2,381.9,522.5,380.6,519.7,380.6z"/>
	<path d="M552.1,380.6c-1.5,0-3.5,0.6-3.5,2.7c0,1.5,1.9,2.6,5.3,3.8c7.8,2.8,12.2,4.5,12.2,11.4c0,6.3-4.4,10.9-13.8,10.9
		c-5,0-9.6-1.1-13.5-2.8l2.9-8.1c3.2,2.2,8.1,3.4,10.7,3.4c2.9,0,4.4-1,4.4-2.8c0-1.7-2.4-2.6-6.6-4c-5.8-1.9-10.8-4.7-10.8-11.4
		c0-6.3,5.1-10.5,12.3-10.5c4.5,0,8.4,0.6,13.1,2.2l-2.8,8.4C558.6,381.9,554.9,380.6,552.1,380.6z"/>
	<path d="M590.4,391.3c0-10.5,7.5-18.1,18.6-18.1c10.9,0,18.7,7.3,18.7,18.1s-7.8,18.1-18.7,18.1
		C597.9,409.4,590.4,401.8,590.4,391.3z M618.2,391.3c0-5.8-3.9-9.7-9.1-9.7c-5.5,0-9.1,4.2-9.1,9.7c0,5.5,3.8,9.7,9.1,9.7
		C614.2,401,618.2,397,618.2,391.3z"/>
	<path d="M645.9,369.8v3.9h7.8v7.8h-7.8v27.4h-9.4v-27.4h-3.7v-7.8h3.7v-4.4c0-8.6,3.8-14.1,12.3-14.1c3.2,0,4.3,0.1,8.3,0.8
		l-1.5,9.3c-2.4-1-3.9-1.4-5.6-1.4C647.5,363.9,645.9,365.5,645.9,369.8z"/>
	<path d="M710.1,399.9v8.9h-32.8l-0.1-6.1l15.5-16.2c4.2-4.5,7.1-8,7.1-12.2c0-3.5-2-6.4-7.2-6.4c-3.3,0-7.8,1.2-13.5,4.8l-1.9-9.5
		c4.8-3,10.7-4.4,16.1-4.4c10.2,0,16.3,5.5,16.3,14.9c0,5.4-1.2,10-8,16.6l-9.8,9.6H710.1z"/>
	<path d="M716.7,384.2c0-15.1,7.3-25.4,19.7-25.4c12,0,19.8,9.4,19.8,25.4c0,15.1-7.3,25.2-19.8,25.2
		C724.5,409.4,716.7,400.2,716.7,384.2z M746.2,384.2c0-10-3.4-16.3-9.7-16.3c-6.2,0-9.8,5.8-9.8,16.3c0,9.9,3.5,16.1,9.8,16.1
		C742.7,400.4,746.2,394.7,746.2,384.2z"/>
	<path d="M792.8,399.9v8.9h-29.4v-8.9h10.2v-28.7l-8.3,6.2l-4.7-7.3l15-10.7h7.8v40.5H792.8z"/>
	<path d="M829.4,359.4v6.4L811.5,410l-9.6-1.8l16.8-39.9h-22.2v-8.9H829.4z"/>
</g>
<circle class="st1" cx="281" cy="475.7" r="48"/>
</svg>
