<?xml version="1.0" encoding="utf-8"?>
<!-- Generator: Adobe Illustrator 21.1.0, SVG Export Plug-In . SVG Version: 6.00 Build 0)  -->
<svg version="1.1" id="Layer_1" xmlns="http://www.w3.org/2000/svg" xmlns:xlink="http://www.w3.org/1999/xlink" x="0px" y="0px"
	 viewBox="0 0 1224.6 688.8" style="enable-background:new 0 0 1224.6 688.8;" xml:space="preserve">
<style type="text/css">
	.st0{fill:#4FC3F7;}
	.st1{fill:#FFFFFF;}
	.st2{clip-path:url(#SVGID_2_);}
	.st3{fill:none;}
	.st4{enable-background:new    ;}
</style>
<rect x="-25.8" y="-29.3" class="st0" width="1484.6" height="759.9"/>
<circle class="st1" cx="291.7" cy="215.5" r="79.9"/>
<circle class="st1" cx="1019.9" cy="203.9" r="151.9"/>
<g>
	<g>
		<g>
			<defs>
				<rect id="SVGID_1_" width="1224.6" height="688.8"/>
			</defs>
			<clipPath id="SVGID_2_">
				<use xlink:href="#SVGID_1_"  style="overflow:visible;"/>
			</clipPath>
			<path class="st2" d="M116.7,109.8c4.7,0,7.2,2.6,7.2,6c0,3.7-2.8,6-7.4,6h-4.9v-12.1L116.7,109.8L116.7,109.8z M118.8,100.3H101
				v45.6h10.6v-14.7h3.7l9.4,14.7h12.6l-10.7-16v-0.1c5.3-2.2,8.5-6.7,8.5-13.7C135.1,107,130,100.3,118.8,100.3 M1134.1,466.7
				l-131.6,131.6H90.4V222.1L222.1,90.4h912.1L1134.1,466.7L1134.1,466.7z M207.1,90.4L90.4,207.1V90.4h40.9H207.1z M1017.5,598.4
				l116.7-116.7v116.7H1017.5z M1144.7,609v-10.6V463.6V90.4V79.8h-10.6h-909h-93.8H90.4H79.8v145.3v373.2V609h10.6h909h134.7
				H1144.7z"/>
		</g>
	</g>
</g>
<g>
	<g>
		<g>
			<defs>
				<polyline id="SVGID_3_" points="1224.6,688.8 1224.6,0 0,0 0,688.8 				"/>
			</defs>
			<clipPath id="SVGID_4_">
				<use xlink:href="#SVGID_3_"  style="overflow:visible;"/>
			</clipPath>
		</g>
	</g>
</g>
<rect x="347" y="269.5" class="st3" width="494.4" height="149.9"/>
<g class="st4">
	<path d="M420.5,409.5c-15,0-27.1-9.1-27.1-26.1c0-14.6,9.4-26.4,26.3-26.4c5.2,0,11.4,0.8,17.3,3.7l-3,12.2
		c-4.2-3.2-9.3-4.5-13.9-4.5c-7.8,0-14,5.5-14,14.8c0,8.2,5.5,14.7,15.6,14.7c5.7,0,9.5-1.8,13.8-4.5l2.6,12
		C433,408.2,426.2,409.5,420.5,409.5z"/>
	<path d="M454.2,355.9v38.8c0,3.7,1.6,4.5,4.2,4.5c1,0,2-0.1,4.1-0.6l1.3,10.1c-1.4,0.4-4.6,0.9-7.8,0.9c-8.5,0-12.9-3.7-12.9-13.9
		v-39.9h11.1V355.9z"/>
	<path d="M496.4,387.4v21.5H486l-0.4-2.9h-0.1c-2.2,1.8-5.4,3.5-9.9,3.5c-7.8,0-11.6-4.7-11.6-11c0-7.2,5.2-11.5,14.5-11.5h6.8
		c-0.1-2.9-1.4-5-6.2-5c-2.8,0-6.6,0.8-10.5,1.8l-1.4-9.1c3.7-1,8.4-1.8,14.2-1.8C490.3,372.9,496.4,375.9,496.4,387.4z
		 M485.4,397.6v-3.7l-5.5,0.1c-3.1,0.1-5,1.2-5,3.8c0,2.2,1.4,3.6,3.7,3.6C483.7,401.3,485.4,398.5,485.4,397.6z"/>
	<path d="M513.1,381.5c-0.6,0-2.4,0.2-2.4,1.8c0,1.3,1.3,2.2,5.3,3.4c8.3,2.4,12,4.5,12,11.5c0,7.2-5,11.4-14,11.4
		c-5.9,0-10.1-0.9-14.6-2.6l3-9.6c3,2.1,7.2,3.7,10.4,3.7c2.5,0,3.7-0.8,3.7-2.2c0-1-1.1-1.9-6-3.4c-5.8-1.7-10.9-4.2-10.9-11.1
		c0-7.4,6-11.5,14.3-11.5c4.2,0,7.1,0.6,12.9,2.2l-3.1,9.6C519.1,382.4,516,381.5,513.1,381.5z"/>
	<path d="M542.6,381.5c-0.6,0-2.4,0.2-2.4,1.8c0,1.3,1.3,2.2,5.3,3.4c8.3,2.4,12,4.5,12,11.5c0,7.2-5,11.4-14,11.4
		c-5.9,0-10.1-0.9-14.6-2.6l3-9.6c3,2.1,7.2,3.7,10.4,3.7c2.5,0,3.7-0.8,3.7-2.2c0-1-1.1-1.9-6-3.4c-5.8-1.7-10.9-4.2-10.9-11.1
		c0-7.4,6-11.5,14.3-11.5c4.2,0,7.1,0.6,12.9,2.2l-3.1,9.6C548.7,382.4,545.6,381.5,542.6,381.5z"/>
	<path d="M575.3,391.3c0-10.7,7.7-18.4,19.2-18.4c11.3,0,19.2,7.5,19.2,18.4c0,10.8-7.8,18.3-19.2,18.3
		C583,409.6,575.3,402,575.3,391.3z M602.3,391.3c0-4.8-3.2-8.3-7.8-8.3c-4.7,0-7.8,3.5-7.8,8.3c0,4.5,3.2,8.3,7.8,8.3
		C599,399.6,602.3,396,602.3,391.3z"/>
	<path d="M618.9,382.8h-3.5v-9.1h3.5v-5.5c0-8.8,4.5-13,12.2-13c4,0,7.1,0.6,8.5,0.9l-1.3,10.1c-2-0.3-3.1-0.6-4.8-0.6
		c-1.9,0-3.4,0.9-3.4,4.5v3.5h6.7v9.1h-6.7v26.1h-11.3L618.9,382.8L618.9,382.8z"/>
	<path d="M690,398.4v10.5h-33.6l-0.1-7.6l14.4-15c4.8-5,7.1-7.7,7.1-10.8c0-3.5-2.1-6-6.3-6c-4,0-8,1.3-13,4.1l-1.9-10.8
		c5-2.4,9.4-4,16.2-4c9.9,0,16.8,5.5,16.8,15.9c0,5.7-2.4,10.8-8.4,16.5l-7.5,7.2L690,398.4L690,398.4z"/>
	<path d="M693.3,384.1c0-15.3,7.3-25.3,20.1-25.3c12.2,0,19.9,9.5,19.9,25.3c0,15.5-7.3,25.5-19.9,25.5
		C700.9,409.6,693.3,400,693.3,384.1z M721.3,384.1c0-8.7-2.6-14.5-7.9-14.5c-4.9,0-8,4.8-8,14.5c0,8.7,2.6,14.6,8,14.6
		C718.2,398.7,721.3,394,721.3,384.1z"/>
	<path d="M768.7,398.4v10.5h-31.3v-10.5h10.4v-24.9l-7.6,5.6l-5.5-8.7l15.5-10.9h9.4v39h9.1V398.4z"/>
	<path d="M802.6,359.4v7.5L785.7,410l-11.6-2l15.8-38.1h-20.1v-10.5H802.6z"/>
</g>
<circle class="st1" cx="673.2" cy="522.8" r="48"/>
<g>
	<rect x="313.5" y="271" class="st3" width="562" height="73.4"/>
	<path class="st1" d="M372.6,313.4c4.5,0,7-2.8,7-10.1v-30.5h12.1v31.5c0,13.3-6.2,20.4-18.3,20.4c-5.8,0-12.2-1.8-16.7-5l4.7-11.8
		C365.3,311.8,368.9,313.4,372.6,313.4z"/>
	<path class="st1" d="M397.6,306.4c0-10.7,7.7-18.4,19.2-18.4c11.3,0,19.2,7.5,19.2,18.4c0,10.8-7.8,18.3-19.2,18.3
		C405.3,324.7,397.6,317.1,397.6,306.4z M424.6,306.4c0-4.8-3.2-8.3-7.8-8.3c-4.7,0-7.8,3.5-7.8,8.3c0,4.5,3.2,8.3,7.8,8.3
		C421.3,314.7,424.6,311.1,424.6,306.4z"/>
	<path class="st1" d="M476.2,302.9V324h-11.3v-18.4c0-5.8-1.8-7.5-5.6-7.5s-6.4,2.7-6.4,8.1V324h-11.3v-35.2h11.3v4.2
		c2.8-3.2,6.6-5,10.7-5C470.9,288.1,476.2,291.7,476.2,302.9z"/>
	<path class="st1" d="M517.9,302.9V324h-11.3v-18.4c0-5.8-1.8-7.5-5.6-7.5s-6.4,2.7-6.4,8.1V324h-11.3v-35.2h11.3v4.2
		c2.8-3.2,6.6-5,10.7-5C512.5,288.1,517.9,291.7,517.9,302.9z"/>
	<path class="st1" d="M557.3,288.8l-19.4,51.8h-11.2l7-18.9L520,288.8h11.7l7.1,19.1h0.2l6.8-19.1H557.3z"/>
	<path class="st1" d="M590.5,298.4c0,8.8,5.2,15.2,13.8,15.2c3,0,5.8-0.6,8.7-2.2v-5.4h-9.8v-10.2h21.4v22.5
		c-4.5,3.6-12.4,6.3-20.3,6.3c-14.8,0-26.4-9.1-26.4-25.6c0-15.3,9.6-26.8,27.1-26.8c5,0,10.7,0.7,17.7,3.9l-2.7,12
		c-5.4-3.4-10.5-4.4-14.9-4.4C596.6,283.6,590.5,289.1,590.5,298.4z"/>
	<path class="st1" d="M681.5,288.8l-12,35.2h-9.4l-5.5-19.7h-0.1l-5.3,19.7h-9.4L628,288.8h11.2l5.8,18.9h0.1l5.2-18.9h8.8l5.3,18.9
		h0.1l5.8-18.9H681.5z"/>
	<path class="st1" d="M684.6,277.5c0-4,3.2-6.8,7.3-6.8s7.3,2.7,7.3,6.8c0,4-3.2,6.8-7.3,6.8S684.6,281.6,684.6,277.5z M686.3,288.8
		h11.2V324h-11.2V288.8z"/>
	<path class="st1" d="M716.9,271v38.8c0,3.7,1.6,4.5,4.2,4.5c1,0,2-0.1,4.1-0.6l1.3,10.1c-1.4,0.4-4.6,0.9-7.8,0.9
		c-8.5,0-12.9-3.7-12.9-13.9V271H716.9z"/>
	<path class="st1" d="M741.3,271v38.8c0,3.7,1.6,4.5,4.2,4.5c1,0,2-0.1,4.1-0.6l1.3,10.1c-1.4,0.4-4.6,0.9-7.8,0.9
		c-8.5,0-12.9-3.7-12.9-13.9V271H741.3z"/>
	<path class="st1" d="M753.5,277.5c0-4,3.2-6.8,7.3-6.8s7.3,2.7,7.3,6.8c0,4-3.2,6.8-7.3,6.8S753.5,281.6,753.5,277.5z M755.2,288.8
		h11.2V324h-11.2V288.8z"/>
	<path class="st1" d="M830.1,303.5V324h-11.2v-17.9c0-4.6-1.3-7.9-5.1-7.9c-3.3,0-5.9,2.7-5.9,8.2V324h-11.2v-17.9
		c0-4.6-1.3-7.9-5.1-7.9c-3.5,0-6,2.7-6,8.2V324h-11.3v-35.2h11.3v4h0.1c2.7-3.1,6.3-4.7,9.9-4.7c4.3,0,7.9,1.5,10.1,5.1h0.1
		c2.9-3.4,7.1-5.1,11.9-5.1C825,288.1,830.1,292.4,830.1,303.5z"/>
</g>
</svg>
