<?xml version="1.0" encoding="utf-8"?>
<!-- Generator: Adobe Illustrator 21.1.0, SVG Export Plug-In . SVG Version: 6.00 Build 0)  -->
<svg version="1.1" id="Layer_1" xmlns="http://www.w3.org/2000/svg" xmlns:xlink="http://www.w3.org/1999/xlink" x="0px" y="0px"
	 viewBox="0 0 1224.6 688.8" style="enable-background:new 0 0 1224.6 688.8;" xml:space="preserve">
<style type="text/css">
	@font-face { font-family: "Ravensbourne Sans"; src: url(fonts/RaveRegular.otf); font-weight: 400; }
	@font-face { font-family: "Ravensbourne Sans"; src: url(fonts/RaveBold.otf); font-weight: 500; }
	@font-face { font-family: "Ravensbourne Sans"; src: url(fonts/RaveExtraBold.otf); font-weight: 600; }
	.st0{fill:#4FC3F7;}
	.st1{fill:#FFFFFF;}
	.st2{clip-path:url(#SVGID_2_);}
	.st3{clip-path:url(#SVGID_4_);}
	.st4{font-family:'Ravensbourne Sans'; font-weight: 600;}
	.st5{font-size:82px;}
	.st6{fill:none;}
	.st7{font-family:'Ravensbourne Sans'; font-weight: 600;}
	.st8{font-size:72px;}
	.st9{letter-spacing:-1;}
</style>
<rect x="-25.8" y="-29.3" class="st0" width="1484.6" height="759.9"/>
<circle class="st1" cx="975.6" cy="233.9" r="79.9"/>
<circle class="st1" cx="284" cy="198.8" r="151.9"/>
<g>
	<g>
		<defs>
			<rect id="SVGID_1_" width="1224.6" height="688.8"/>
		</defs>
		<clipPath id="SVGID_2_">
			<use xlink:href="#SVGID_1_"  style="overflow:visible;"/>
		</clipPath>
		<path class="st2" d="M116.7,109.8c4.7,0,7.2,2.6,7.2,6c0,3.7-2.8,6-7.4,6h-4.9v-12.1L116.7,109.8L116.7,109.8z M118.8,100.3H101
			v45.6h10.6v-14.7h3.7l9.4,14.7h12.6l-10.7-16v-0.1c5.3-2.2,8.5-6.7,8.5-13.7C135.1,107,130,100.3,118.8,100.3 M1134.1,466.7
			l-131.6,131.6H90.4V222.1L222.1,90.4h912.1L1134.1,466.7L1134.1,466.7z M207.1,90.4L90.4,207.1V90.4h40.9H207.1z M1017.5,598.4
			l116.7-116.7v116.7H1017.5z M1144.7,609v-10.6V463.6V90.4V79.8h-10.6h-909h-93.8H90.4H79.8v145.3v373.2V609h10.6h909h134.7H1144.7
			z"/>
	</g>
</g>
<g>
	<g>
		<defs>
			<polyline id="SVGID_3_" points="1224.6,688.8 1224.6,0 0,0 0,688.8 			"/>
		</defs>
		<clipPath id="SVGID_4_">
			<use xlink:href="#SVGID_3_"  style="overflow:visible;"/>
		</clipPath>
		<g class="st3">
			<text transform="matrix(1 0 0 1 902.2881 306.819)" class="st4 st5"> </text>
		</g>
	</g>
</g>
<rect x="249" y="269.5" class="st6" width="726.6" height="149.9"/>
<text transform="matrix(1 0 0 1 422.5672 322.4723)" class="st1 st7 st8 st9">Web Media</text>
<text transform="matrix(1 0 0 1 390.8672 408.8723)" class="st7 st8 st9">Class of 2017</text>
<circle class="st1" cx="513.6" cy="523.6" r="48"/>
</svg>
