<?xml version="1.0" encoding="utf-8"?>
<!-- Generator: Adobe Illustrator 21.1.0, SVG Export Plug-In . SVG Version: 6.00 Build 0)  -->
<svg version="1.1" id="Layer_1" xmlns="http://www.w3.org/2000/svg" xmlns:xlink="http://www.w3.org/1999/xlink" x="0px" y="0px"
	 viewBox="0 0 1224.6 688.8" style="enable-background:new 0 0 1224.6 688.8;" xml:space="preserve">
<style type="text/css">
	.st0{fill:#4FC3F7;}
	.st1{fill:#FFFFFF;}
	.st2{clip-path:url(#SVGID_2_);}
	.st3{clip-path:url(#SVGID_4_);}
	.st4{enable-background:new    ;}
	.st5{fill:none;}
</style>
<rect x="-25.8" y="-29.3" class="st0" width="1484.6" height="759.9"/>
<circle class="st1" cx="975.6" cy="233.9" r="79.9"/>
<circle class="st1" cx="284" cy="198.8" r="151.9"/>
<g>
	<g>
		<defs>
			<rect id="SVGID_1_" width="1224.6" height="688.8"/>
		</defs>
		<clipPath id="SVGID_2_">
			<use xlink:href="#SVGID_1_"  style="overflow:visible;"/>
		</clipPath>
		<path class="st2" d="M116.7,109.8c4.7,0,7.2,2.6,7.2,6c0,3.7-2.8,6-7.4,6h-4.9v-12.1L116.7,109.8L116.7,109.8z M118.8,100.3H101
			v45.6h10.6v-14.7h3.7l9.4,14.7h12.6l-10.7-16v-0.1c5.3-2.2,8.5-6.7,8.5-13.7C135.1,107,130,100.3,118.8,100.3 M1134.1,466.7
			l-131.6,131.6H90.4V222.1L222.1,90.4h912.1L1134.1,466.7L1134.1,466.7z M207.1,90.4L90.4,207.1V90.4h40.9H207.1z M1017.5,598.4
			l116.7-116.7v116.7H1017.5z M1144.7,609v-10.6V463.6V90.4V79.8h-10.6h-909h-93.8H90.4H79.8v145.3v373.2V609h10.6h909h134.7H1144.7
			z"/>
	</g>
</g>
<g>
	<g>
		<defs>
			<polyline id="SVGID_3_" points="1224.6,688.8 1224.6,0 0,0 0,688.8 			"/>
		</defs>
		<clipPath id="SVGID_4_">
			<use xlink:href="#SVGID_3_"  style="overflow:visible;"/>
		</clipPath>
		<g class="st3">
			<g class="st4">
			</g>
		</g>
	</g>
</g>
<rect x="249" y="269.5" class="st5" width="726.6" height="149.9"/>
<g class="st4">
	<path class="st1" d="M495.1,271.3l-16,51.1h-11l-8.6-33.6h-0.1l-8.9,33.6h-11l-16-51.1h12.8l8.6,31.4h0.1l7.9-31.4h12.7l7.8,31.4
		h0.1l8.6-31.4H495.1z"/>
	<path class="st1" d="M526.2,307.9h-23.3c1,4,4.5,6.1,11,6.1c2.7,0,5.9-0.4,9.9-2.2l1.2,9.2c-3.4,1.4-8.9,2.1-12.3,2.1
		c-14.2,0-21.1-7.8-21.1-18.9c0-10.2,7.6-17.7,18-17.7c11,0,16.9,7.6,16.9,17.7C526.5,305.7,526.3,307.1,526.2,307.9z M502.8,301.2
		l12.8-0.1c-0.6-3.7-3-5.6-6.1-5.6C506.2,295.5,503.5,297.6,502.8,301.2z"/>
	<path class="st1" d="M567.9,304c0,11.8-7.3,19.1-18.1,19.1c-4.5,0-7.8-1.4-10.7-3.4l-0.8,2.7h-8.1v-53h11.3V291h0.1
		c2.5-3,6-4.5,10-4.5C561.1,286.5,567.9,293.4,567.9,304z M556.5,304.8c0-5.1-3.5-8.2-7.6-8.2c-4.5,0-7.9,3.5-7.9,9.8v4.2
		c2.1,1.5,4.7,2.7,7.6,2.7C552.7,313.3,556.5,309.8,556.5,304.8z"/>
	<path class="st1" d="M641.7,271.3v51.1h-12v-28.2h-0.1l-10.4,18.9h-7.7l-10.4-18.8h-0.1v28.2h-12v-51.1h12.1l14.2,27.1h0.1
		l14.1-27.1H641.7z"/>
	<path class="st1" d="M681.4,307.9h-23.3c1,4,4.5,6.1,11,6.1c2.7,0,5.9-0.4,9.9-2.2l1.2,9.2c-3.4,1.4-8.9,2.1-12.3,2.1
		c-14.2,0-21.1-7.8-21.1-18.9c0-10.2,7.6-17.7,18-17.7c11,0,16.9,7.6,16.9,17.7C681.7,305.7,681.6,307.1,681.4,307.9z M658,301.2
		l12.8-0.1c-0.6-3.7-3-5.6-6.1-5.6C661.4,295.5,658.7,297.6,658,301.2z"/>
	<path class="st1" d="M724,319.4l-9.6,5.1c-2.2-1.9-3.2-4.2-3.6-6.3c-2.4,3.3-5.9,5-10.7,5c-8.9,0-16.3-7.1-16.3-17.6
		c0-11.7,8.4-18.9,18.6-18.9c2.6,0,5,0.5,7.6,1.7v-18.8h11.2v42.8C721.3,315.2,722.1,317.6,724,319.4z M710.5,303.5v-4.6
		c-2.2-1.9-4.6-2.3-6.3-2.3c-4.8,0-8.9,3.5-8.9,8.9c0,5,3.6,7.8,7.3,7.8S710.5,310.5,710.5,303.5z"/>
	<path class="st1" d="M726,276c0-4,3.2-6.8,7.3-6.8c4,0,7.3,2.7,7.3,6.8s-3.2,6.8-7.3,6.8C729.3,282.8,726,280.1,726,276z
		 M727.7,287.3h11.2v35.2h-11.2V287.3z"/>
	<path class="st1" d="M775.6,301v21.5h-10.4l-0.4-2.9h-0.1c-2.2,1.8-5.4,3.5-9.9,3.5c-7.8,0-11.6-4.7-11.6-11
		c0-7.2,5.2-11.5,14.5-11.5h6.8c-0.1-2.9-1.4-5-6.2-5c-2.8,0-6.6,0.8-10.5,1.8l-1.4-9.1c3.7-1,8.4-1.8,14.2-1.8
		C769.5,286.5,775.6,289.5,775.6,301z M764.6,311.2v-3.7l-5.5,0.1c-3.1,0.1-5,1.2-5,3.8c0,2.2,1.4,3.6,3.7,3.6
		C762.8,314.9,764.6,312.1,764.6,311.2z"/>
</g>
<g class="st4">
	<path d="M420.5,409.5c-15,0-27.1-9.1-27.1-26.1c0-14.6,9.4-26.4,26.3-26.4c5.2,0,11.4,0.8,17.3,3.7l-3,12.2
		c-4.2-3.2-9.3-4.5-13.9-4.5c-7.8,0-14,5.5-14,14.8c0,8.2,5.5,14.7,15.6,14.7c5.7,0,9.5-1.8,13.8-4.5l2.6,12
		C433,408.2,426.2,409.5,420.5,409.5z"/>
	<path d="M454.2,355.9v38.8c0,3.7,1.6,4.5,4.2,4.5c1,0,2-0.1,4.1-0.6l1.3,10.1c-1.4,0.4-4.6,0.9-7.8,0.9c-8.5,0-12.9-3.7-12.9-13.9
		v-39.9H454.2z"/>
	<path d="M496.4,387.4v21.5h-10.4l-0.4-2.9h-0.1c-2.2,1.8-5.4,3.5-9.9,3.5c-7.8,0-11.6-4.7-11.6-11c0-7.2,5.2-11.5,14.5-11.5h6.8
		c-0.1-2.9-1.4-5-6.2-5c-2.8,0-6.6,0.8-10.5,1.8l-1.4-9.1c3.7-1,8.4-1.8,14.2-1.8C490.3,372.9,496.4,375.9,496.4,387.4z
		 M485.4,397.6v-3.7l-5.5,0.1c-3.1,0.1-5,1.2-5,3.8c0,2.2,1.4,3.6,3.7,3.6C483.7,401.3,485.4,398.5,485.4,397.6z"/>
	<path d="M513.1,381.5c-0.6,0-2.4,0.2-2.4,1.8c0,1.3,1.3,2.2,5.3,3.4c8.3,2.4,12,4.5,12,11.5c0,7.2-5,11.4-14,11.4
		c-5.9,0-10.1-0.9-14.6-2.6l3-9.6c3,2.1,7.2,3.7,10.4,3.7c2.5,0,3.7-0.8,3.7-2.2c0-1-1.1-1.9-6-3.4c-5.8-1.7-10.9-4.2-10.9-11.1
		c0-7.4,6-11.5,14.3-11.5c4.2,0,7.1,0.6,12.9,2.2l-3.1,9.6C519.1,382.4,516,381.5,513.1,381.5z"/>
	<path d="M542.6,381.5c-0.6,0-2.4,0.2-2.4,1.8c0,1.3,1.3,2.2,5.3,3.4c8.3,2.4,12,4.5,12,11.5c0,7.2-5,11.4-14,11.4
		c-5.9,0-10.1-0.9-14.6-2.6l3-9.6c3,2.1,7.2,3.7,10.4,3.7c2.5,0,3.7-0.8,3.7-2.2c0-1-1.1-1.9-6-3.4c-5.8-1.7-10.9-4.2-10.9-11.1
		c0-7.4,6-11.5,14.3-11.5c4.2,0,7.1,0.6,12.9,2.2l-3.1,9.6C548.7,382.4,545.6,381.5,542.6,381.5z"/>
	<path d="M575.3,391.3c0-10.7,7.7-18.4,19.2-18.4c11.3,0,19.2,7.5,19.2,18.4c0,10.8-7.8,18.3-19.2,18.3
		C583,409.6,575.3,402,575.3,391.3z M602.3,391.3c0-4.8-3.2-8.3-7.8-8.3c-4.7,0-7.8,3.5-7.8,8.3c0,4.5,3.2,8.3,7.8,8.3
		C599,399.6,602.3,396,602.3,391.3z"/>
	<path d="M618.9,382.8h-3.5v-9.1h3.5v-5.5c0-8.8,4.5-13,12.2-13c4,0,7.1,0.6,8.5,0.9l-1.3,10.1c-2-0.3-3.1-0.6-4.8-0.6
		c-1.9,0-3.4,0.9-3.4,4.5v3.5h6.7v9.1h-6.7v26.1h-11.3V382.8z"/>
	<path d="M690,398.4v10.5h-33.6l-0.1-7.6l14.4-15c4.8-5,7.1-7.7,7.1-10.8c0-3.5-2.1-6-6.3-6c-4,0-8,1.3-13,4.1l-1.9-10.8
		c5-2.4,9.4-4,16.2-4c9.9,0,16.8,5.5,16.8,15.9c0,5.7-2.4,10.8-8.4,16.5l-7.5,7.2H690z"/>
	<path d="M693.3,384.1c0-15.3,7.3-25.3,20.1-25.3c12.2,0,19.9,9.5,19.9,25.3c0,15.5-7.3,25.5-19.9,25.5
		C700.9,409.6,693.3,400,693.3,384.1z M721.3,384.1c0-8.7-2.6-14.5-7.9-14.5c-4.9,0-8,4.8-8,14.5c0,8.7,2.6,14.6,8,14.6
		C718.2,398.7,721.3,394,721.3,384.1z"/>
	<path d="M768.7,398.4v10.5h-31.3v-10.5h10.4v-24.9l-7.6,5.6l-5.5-8.7l15.5-10.9h9.4v39H768.7z"/>
	<path d="M802.6,359.4v7.5L785.7,410l-11.6-2l15.8-38.1h-20.1v-10.5H802.6z"/>
</g>
<circle class="st1" cx="513.6" cy="523.6" r="48"/>
</svg>
